<?xml version="1.0" encoding="utf-8"?>
<!-- Generator: Adobe Illustrator 24.1.2, SVG Export Plug-In . SVG Version: 6.00 Build 0)  -->
<svg version="1.1" id="Layer_1" xmlns="http://www.w3.org/2000/svg" xmlns:xlink="http://www.w3.org/1999/xlink" x="0px" y="0px"
	 viewBox="0 0 90 94" style="enable-background:new 0 0 90 94;" xml:space="preserve">
<style type="text/css">
	.st0{fill:#AAB2B5;}
</style>
<path class="st0" d="M42.2,59.1c0.4-0.6,0.7-1.1,1.1-1.6c5-7.4,10.1-14.8,15.1-22.3c3-4.4,6-8.8,8.9-13.2c1-1.5,2.9-1.9,4.4-0.8
	c1.7,1.1,3.4,2.3,5,3.4c1.4,1,1.8,2.9,0.8,4.3c-2.2,3.3-4.5,6.6-6.7,10c-3.6,5.3-7.2,10.7-10.9,16c-3.2,4.7-6.4,9.4-9.6,14.1
	c-1,1.5-2,3-3,4.5c-0.7,1-1.6,1.8-2.9,2.1c-1.1,0.3-2.1,0-3-0.4c-0.7-0.3-1.3-0.7-1.8-1.3C33.8,68.1,27.9,62.2,22,56.3
	c-1.3-1.3-1.3-3.2,0-4.5c1.4-1.4,2.8-2.8,4.3-4.3c1.3-1.3,3.2-1.3,4.5,0c3.8,3.8,7.5,7.5,11.3,11.3C42.1,58.9,42.2,59,42.2,59.1z"/>
</svg>
