<?xml version="1.0" encoding="utf-8"?>
<!-- Generator: Adobe Illustrator 24.1.2, SVG Export Plug-In . SVG Version: 6.00 Build 0)  -->
<svg version="1.1" id="Layer_1" xmlns="http://www.w3.org/2000/svg" xmlns:xlink="http://www.w3.org/1999/xlink" x="0px" y="0px"
	 viewBox="0 0 1094.4 310" style="enable-background:new 0 0 1094.4 310;" xml:space="preserve">
<style type="text/css">
	.st0{fill:#FFFFFF;}
</style>
<g>
	<g>
		<g>
			<path class="st0" d="M80.1,26.2v8.9c3.5,0.5,8.1,1.4,13.3,2.8c4,1.1,6.2,1.6,6.9,2.1c4.5,2.9-6.9,33.5-60.2,132.9
				c-2.6,5.9-5.8,9.3-8.5,11.3c-5.4,4.1-13.7,6.9-13.7,6.9s0,3,0,8.5h53.3c-1.8-2.8-3.5-5.7-5.3-8.5c-2.8-0.9-7.2-2.7-9.3-6.8
				c-3-5.7-0.2-12.5,1.2-15.8c5.5-12.7,27.3-58.4,57.8-120c0,0,4.4-8.9,4.4,0s0,128.9,0,128.9s0,2.2-0.6,4.4
				c-0.4,1.4-1.4,2.6-3.9,4.4c-1.8,1.4-4.6,3.3-8.5,4.8c-1.6,2.8-3.2,5.7-4.9,8.5H169c0-2.8,0-5.7,0-8.5c-4.4-1.6-8.9-3.2-13.3-4.8
				c0,0-4.4,0-4.4-8.9s0-151.1,0-151.1L80.1,26.2L80.1,26.2z"/>
			<path class="st0" d="M249.1,184.6l-1.5-0.5c-5.6,5.4-11,9.3-16.2,11.8s-10.8,3.7-16.7,3.7c-5.8,0-10.9-1.1-15.2-3.2
				c-4.3-2.1-7.6-5.1-9.8-8.9c-2.2-3.8-3.3-8.2-3.3-13.1c0-10,4.9-17.8,14.7-23.5c9.8-5.7,24.7-9.3,44.6-10.8v-9.7
				c0-6.3-0.7-11.2-2.1-14.6c-1.4-3.4-3.3-5.8-5.5-7.2s-4.9-2.1-8-2.1s-5.8,0.5-8.1,1.6c-2.3,1.1-4.3,3.1-6.1,6.2
				c-1.8,3-3.2,7.2-4.1,12.6h-19.2v-18.5c6.2-2.8,11.4-4.9,15.5-6.4c4.1-1.5,8.2-2.7,12.3-3.7c4-1,7.6-1.7,10.8-2.1
				c3.2-0.4,6.4-0.6,9.5-0.6c8.2,0,14.8,1.1,19.7,3.3c4.9,2.2,8.6,5.7,11,10.6c2.4,4.9,3.7,11.6,3.7,20.2v39.7
				c0,4.5,0.1,7.9,0.3,10.4c0.2,2.4,0.5,4.3,1,5.4c0.4,1.2,1,2.1,1.7,2.8s1.5,1.3,2.5,1.7c1,0.4,2.8,1,5.5,1.7v6.7h-37.8
				L249.1,184.6z M245.7,149.9c-10.5,0.3-18.3,2.2-23.3,5.9c-5,3.7-7.6,9-7.6,16.1c0,4.2,1.1,7.4,3.5,9.6c2.3,2.2,5.5,3.3,9.6,3.3
				c3.1,0,6.1-0.8,8.8-2.5s5-3.9,6.6-6.7c1.6-2.8,2.4-5.7,2.4-8.8V149.9z"/>
			<path class="st0" d="M491.6,141.3c7-0.8,13.3-1.2,18.9-1.2c26.9,0,40.4,9.8,40.4,29.3c0,20.1-13.3,30.2-40.1,30.2H451v-6.7
				c4.4-0.7,7.4-2.3,8.9-4.5c1.5-2.3,2.3-6.8,2.3-13.7v-50.9c0-6.6-0.7-11.1-2.1-13.6c-1.4-2.5-4-4.1-7.7-4.7v-6.7h49v6.7
				c-4.1,0.7-6.7,2.3-7.9,4.9c-1.2,2.6-1.8,7-1.8,13.4L491.6,141.3L491.6,141.3z M491.6,188.3c3,0.3,6.3,0.4,9.7,0.4
				c12.3,0,18.5-6.2,18.5-18.5c0-12-5.9-18-17.7-18c-4.1,0-7.6,0.3-10.5,0.8V188.3z"/>
			<path class="st0" d="M622,157.4c-3.7,0-6.8,1.1-9.2,3.3c-2.4,2.2-4.8,5.5-7.2,9.9l-12.2,24.3v4.7h-34.8v-6.7
				c3-0.7,5.2-1.9,6.7-3.5c1.5-1.6,3.3-4.4,5.5-8.3l6.1-12c3.3-6.6,8.5-11.3,15.7-14.2v-0.9c-15.7-4.1-23.6-12.5-23.6-25.2
				c0-20,13.7-30,41.2-30h57v6.7c-3.9,0.6-6.7,2-8.3,4.2c-1.6,2.2-2.4,7.5-2.4,15.8v48.4c0,6.4,0.6,11,1.7,13.6s4.2,4.4,9.2,5.4v6.7
				h-50.5v-6.7c4.1-0.5,6.9-1.9,8.2-4.2c1.3-2.2,2-7.7,2-16.4v-14.8H622z M627.1,147.4v-37.9c-11.5-1-19.3,0.1-23.4,3
				s-6.2,8.1-6.2,15.3c0,6.8,1.7,11.7,5,14.8c3.3,3.1,8.8,4.7,16.3,4.7L627.1,147.4L627.1,147.4z"/>
			<path class="st0" d="M421.1,163.9l-12.5-95.7h5.8V23.7h-22.3V37h-8.9V23.7h-26.7V37h-8.9V23.7h-22.3v44.5h8.2l-14.9,95.7h-8.9
				v35.6H430v-35.6H421.1z M361.3,106.1h-13.7V78.6h13.7V106.1z M395.7,140.5h-13.7V113h13.7V140.5z"/>
			<g>
				<path class="st0" d="M806.8,189.7c-5.4,3.7-10.6,6.3-15.7,7.7s-11,2.2-17.6,2.2c-10.3,0-18.2-2.2-23.9-6.5
					c-5.7-4.4-8.5-10.6-8.5-18.6c0-2.6,0.3-5,1-7.2c0.7-2.2,1.7-4.3,3-6.3c1.3-2,2.9-3.9,4.8-5.8c2-1.9,4.3-3.7,6.9-5.5
					c2.6-1.8,6.3-3.9,11-6.4c-2.9-4-5-7.2-6.3-9.6s-2.2-4.9-2.9-7.4c-0.7-2.5-1-5.3-1-8.1c0-5,1.4-9.5,4.2-13.5
					c2.8-4,6.9-7.1,12.3-9.4c5.3-2.3,11.2-3.4,17.5-3.4c8.3,0,14.9,1.7,19.6,5.1s7.2,8.3,7.2,14.8c0,2.4-0.3,4.6-1,6.6
					s-1.9,4.1-3.5,6.3c-1.7,2.1-3.9,4.3-6.6,6.4c-2.8,2.1-7.3,5.1-13.8,9c3.2,4.3,7.2,9.1,11.9,14.6c4.7,5.5,8.7,10,12,13.6
					c2.3-2.8,4-5.5,5.1-8.2c1.1-2.6,1.7-5.3,1.7-8.1c0-2.7-0.6-4.6-1.7-5.8c-1.2-1.2-3-1.8-5.5-2V139h24v4.5c0,0.7-0.2,2.1-0.7,4.3
					c-0.3,1.4-0.7,2.8-1.2,4.2c-0.4,1.4-0.9,2.8-1.5,4.2c-0.6,1.4-1.2,2.7-1.9,4c-0.7,1.3-1.5,2.6-2.3,3.9s-1.7,2.5-2.7,3.8
					c-1,1.3-2.1,2.5-3.2,3.8c-1.2,1.2-2.4,2.4-3.6,3.5c2.3,2.6,4.2,4.7,5.9,6.2c1.7,1.5,3.2,2.6,4.4,3.3c1.3,0.7,2.6,1,3.9,1
					c1.2,0,2.4-0.3,3.5-0.8c1.1-0.5,2.6-1.7,4.5-3.3l5,6.3c-4,4.1-7.9,7.1-11.6,8.9s-7.5,2.8-11.4,2.8c-4.3,0-8-0.8-11.1-2.4
					C813.7,195.6,810.3,193.1,806.8,189.7z M799.5,182.4c-4-4.5-8.6-9.9-13.8-16.3c-5.3-6.3-9.3-11.3-12-14.9
					c-3.1,2.4-5.3,5.1-6.8,8.1c-1.5,3-2.2,6.3-2.2,9.9c0,5.5,1.6,9.9,4.9,13c3.3,3.1,7.7,4.7,13.4,4.7c3.4,0,6.3-0.4,8.8-1.1
					C794.2,185.1,796.8,184,799.5,182.4z M787.7,132.5c5.1-3.1,8.9-6.4,11.3-9.9s3.7-7.1,3.7-10.8s-1-6.5-2.8-8.7
					c-1.9-2.1-4.4-3.2-7.5-3.2c-2.2,0-4.1,0.5-5.9,1.5s-3.2,2.5-4.3,4.6s-1.6,4.6-1.6,7.7c0,3.2,0.5,6.2,1.7,9
					C783.2,125.5,785.1,128.8,787.7,132.5z"/>
			</g>
			<g>
				<g>
					<path class="st0" d="M1020.3,199.5v-6.2c-1.2-2.7-4.2-10.8-9.1-24.6c-5.7-16.2-10-27.3-12.7-33.1c-2.8-5.9-6.1-10.1-10.1-12.8
						c-4-2.7-9.7-4-17.2-4h-2.5v49.5c0,8.2,0.8,13.8,2.3,16.7s5.3,5,11.2,6.4v8.2h-65.5v-8.2c5.7-1.4,9.4-3.5,11-6.3
						c1.6-2.8,2.4-8.4,2.4-16.8V60.7c0-8.6-0.8-14.2-2.3-16.8s-5.2-4.8-11.1-6.4v-8.2h65.5v8.2c-5.8,1.6-9.5,3.7-11.1,6.5
						c-1.6,2.7-2.4,8.3-2.4,16.7v44.4h2.6c10.1,0,17.7-2.9,23-8.8s9.7-14.1,13.3-24.8c4.3-13,8.3-22.3,11.9-27.7
						c3.6-5.4,8.2-9.5,13.7-12.4c5.5-2.8,12.6-4.2,21.4-4.2c6.8,0,12.8,1,18,2.9V61H1055c-0.9-7.6-4.2-11.4-10-11.4
						c-4.3,0-8,2.3-11,6.9c-3,4.6-6.2,11.1-9.5,19.6c-5.3,14.1-12.7,23.7-22.2,28.9v1.3c8.7,1,15.6,3.2,20.8,6.7
						c5.2,3.5,9.2,7.5,12,12.3c2.8,4.7,7.1,14.1,12.9,28.1c6.9,16.7,11.7,27,14.3,30.9c2.6,3.9,6.9,6.3,12.8,7.1v8.2L1020.3,199.5
						L1020.3,199.5z"/>
				</g>
			</g>
		</g>
	</g>
	<g>
		<path class="st0" d="M129,276.4c-1,0.4-2.1,0.8-3.4,1.2c-1.3,0.3-2.7,0.5-4.2,0.5c-2.7,0-4.7-0.4-5.9-1.2
			c-1.3-0.8-2.1-1.9-2.6-3.4h-0.2c-0.8,0.8-1.5,1.4-2.2,1.9s-1.4,1-2.2,1.3c-1,0.5-2,0.8-3,1.1c-0.9,0.2-2.3,0.4-4,0.4
			c-2.5,0-4.7-0.8-6.5-2.3s-2.7-3.5-2.7-6c0-1.4,0.2-2.6,0.6-3.6s0.9-1.9,1.7-2.7c0.7-0.7,1.4-1.3,2.3-1.7c0.9-0.5,1.8-0.9,2.9-1.3
			c2-0.7,4.3-1.5,7.1-2.3c2.8-0.8,4.8-1.5,6.1-2.1v-3.2c0-0.5,0-1.3-0.1-2.2c-0.1-0.9-0.3-1.7-0.6-2.3c-0.3-0.7-0.8-1.3-1.4-1.8
			c-0.7-0.5-1.5-0.7-2.6-0.7c-1,0-1.8,0.1-2.4,0.4c-0.6,0.3-1.2,0.5-1.6,0.8c0.1,0.4,0.3,1.1,0.6,2c0.3,0.9,0.5,1.8,0.5,2.6
			c0,0.4-0.1,0.8-0.3,1.4s-0.5,1-0.9,1.3c-0.5,0.4-1.1,0.8-1.7,1c-0.6,0.2-1.6,0.4-2.9,0.4c-1.9,0-3.2-0.4-4.2-1.3s-1.4-2-1.4-3.5
			c0-1.2,0.5-2.3,1.5-3.3s2.2-1.8,3.6-2.4c1.4-0.7,3-1.2,4.8-1.5c1.8-0.4,3.5-0.5,5-0.5c2.1,0,4.1,0.1,5.9,0.4
			c1.8,0.3,3.4,0.8,4.8,1.6c1.4,0.8,2.4,1.9,3.2,3.3c0.8,1.5,1.2,3.4,1.2,5.7c0,2.5-0.1,5.4-0.1,8.8c-0.1,3.4-0.1,5.6-0.1,6.7
			c0,1,0.1,1.8,0.4,2.3c0.3,0.6,0.8,1,1.4,1.3c0.4,0.2,1,0.3,1.8,0.3c0.8,0,1.5,0,2.2,0L129,276.4L129,276.4z M112.7,259.3
			c-1.2,0.4-2.4,0.9-3.7,1.4s-2.2,1.1-3,1.7c-0.8,0.6-1.4,1.4-1.9,2.3c-0.5,1-0.7,2.1-0.7,3.4c0,1.7,0.4,3,1.2,3.7
			c0.8,0.8,1.7,1.2,2.9,1.2c1.2,0,2.2-0.3,3-0.7s1.5-1.1,2.1-1.8L112.7,259.3z"/>
		<path class="st0" d="M162.7,256.4h-2.1c-0.2-0.6-0.5-1.3-0.8-2.1s-0.9-1.8-1.5-2.8c-0.6-0.9-1.2-1.8-1.9-2.5
			c-0.7-0.7-1.4-1.1-2.2-1.2c-0.6-0.1-1.3-0.1-2.1-0.2c-0.8,0-1.5-0.1-2.1-0.1h-2.4v23.5c0,0.8,0.1,1.5,0.4,2s0.8,0.9,1.4,1.1
			c0.5,0.2,1,0.3,1.5,0.3c0.5,0.1,1.1,0.1,1.8,0.2v2.4h-20.9v-2.4c0.6,0,1.1-0.1,1.7-0.2s1-0.2,1.4-0.3c0.7-0.2,1.2-0.6,1.4-1.1
			s0.4-1.2,0.4-2v-20.6c0-0.8-0.1-1.4-0.4-2s-0.8-0.9-1.4-1.1c-0.6-0.2-1.1-0.3-1.6-0.3c-0.5,0-1-0.1-1.5-0.2v-2.4h31V256.4z"/>
		<path class="st0" d="M200.3,269.2c-0.8,1.3-1.7,2.4-2.8,3.5c-1.1,1.1-2.3,2-3.7,2.8c-1.5,0.8-2.9,1.5-4.4,1.9s-3.2,0.6-5.2,0.6
			c-3.2,0-6-0.5-8.4-1.4s-4.3-2.2-5.8-3.7c-1.5-1.5-2.7-3.4-3.4-5.5c-0.8-2.1-1.1-4.4-1.1-6.9c0-2.2,0.4-4.4,1.2-6.4s2-3.9,3.5-5.5
			c1.5-1.5,3.4-2.8,5.6-3.8c2.3-1,4.8-1.5,7.6-1.5c3.1,0,5.6,0.4,7.6,1.1c2,0.8,3.6,1.8,4.9,3.1c1.3,1.3,2.2,2.7,2.7,4.4
			c0.6,1.7,0.9,3.5,0.9,5.3v2.1h-22.2c0,4.5,0.9,7.9,2.6,10.3c1.7,2.3,4.5,3.5,8.3,3.5c2.1,0,3.9-0.6,5.6-1.7s3-2.6,4.2-4.3
			L200.3,269.2z M187.8,256.7c0-1.3-0.1-2.7-0.2-4s-0.4-2.5-0.7-3.4c-0.4-1-0.9-1.8-1.5-2.3c-0.6-0.5-1.5-0.8-2.4-0.8
			c-1.7,0-3,0.8-4,2.6s-1.6,4.4-1.6,8.1L187.8,256.7z"/>
		<path class="st0" d="M247.3,277.1h-20v-2.4c0.4-0.1,0.8-0.2,1.4-0.3c0.5-0.1,1-0.3,1.5-0.5c0.5-0.3,0.9-0.7,1.1-1.1s0.3-1.1,0.3-2
			v-9.4h-12.3v9.4c0,0.8,0.1,1.4,0.3,1.9c0.2,0.5,0.6,0.9,1.1,1.2c0.4,0.2,0.8,0.4,1.3,0.5c0.5,0.1,1,0.2,1.6,0.3v2.4h-20v-2.4
			c0.5,0,1.1-0.1,1.7-0.2s1-0.2,1.4-0.3c0.7-0.2,1.2-0.6,1.5-1.1s0.4-1.2,0.4-2v-20.6c0-0.8-0.1-1.4-0.4-2s-0.8-0.9-1.4-1.1
			c-0.6-0.2-1.1-0.3-1.6-0.3c-0.5,0-1-0.1-1.5-0.2v-2.4h20v2.4c-0.5,0.1-1,0.2-1.5,0.3c-0.5,0.1-0.9,0.3-1.4,0.5
			c-0.5,0.3-0.9,0.7-1.1,1.2c-0.2,0.5-0.3,1.2-0.3,1.9v7.6h12.3v-7.6c0-0.7-0.1-1.3-0.3-1.9c-0.2-0.5-0.6-0.9-1.1-1.2
			c-0.4-0.2-0.9-0.4-1.4-0.5c-0.5-0.1-1-0.2-1.4-0.3v-2.4h20v2.4c-0.7,0-1.2,0.1-1.6,0.2c-0.4,0.1-0.9,0.2-1.5,0.3
			c-0.6,0.2-1.1,0.5-1.4,1.1s-0.4,1.2-0.4,2v20.6c0,0.8,0.1,1.5,0.4,2s0.8,0.9,1.4,1.1c0.5,0.2,1,0.3,1.4,0.3c0.4,0.1,1,0.1,1.7,0.2
			L247.3,277.1L247.3,277.1z"/>
		<path class="st0" d="M285.6,256h-2.1c-0.2-0.5-0.5-1.3-0.9-2.1c-0.4-0.9-0.9-1.8-1.5-2.7c-0.6-0.9-1.2-1.7-1.9-2.4
			c-0.7-0.7-1.5-1.1-2.2-1.2c-0.6-0.1-1.2-0.1-1.8-0.1c-0.6,0-1.3,0-2.1,0v23.6c0,0.8,0.1,1.5,0.4,2s0.8,0.9,1.4,1.1
			c0.5,0.2,1,0.3,1.5,0.3c0.5,0.1,1.1,0.1,1.8,0.2v2.4h-21.1v-2.4c0.5,0,1.1-0.1,1.8-0.2c0.6-0.1,1.1-0.2,1.5-0.3
			c0.7-0.2,1.2-0.6,1.5-1.1c0.3-0.5,0.4-1.2,0.4-2v-23.6c-1,0-1.7,0-2.2,0s-1,0.1-1.7,0.1c-0.8,0.1-1.5,0.5-2.2,1.2
			s-1.4,1.5-1.9,2.4c-0.6,0.9-1.1,1.8-1.5,2.8s-0.7,1.6-0.9,2.1h-2.1v-11.5h35.8L285.6,256L285.6,256z"/>
		<path class="st0" d="M306.7,278.1c-3,0-5.7-0.4-8.1-1.3s-4.3-2.1-5.8-3.6c-1.5-1.5-2.6-3.4-3.4-5.5c-0.7-2.1-1.1-4.4-1.1-6.9
			c0-2.3,0.5-4.5,1.4-6.5c0.9-2.1,2.1-3.9,3.7-5.4c1.6-1.6,3.6-2.9,6-3.8c2.4-1,5-1.4,7.9-1.4c4,0,7.2,0.8,9.6,2.3s3.5,3.6,3.5,6.2
			c0,1.6-0.4,2.8-1.3,3.8s-2.3,1.5-4.3,1.5c-1.6,0-3-0.4-4.1-1.2c-1.1-0.8-1.7-1.8-1.7-3.1c0-1.1,0.2-2.1,0.5-3.2s0.6-1.8,0.6-2.4
			c-0.2-0.4-0.5-0.7-0.9-0.9c-0.4-0.2-1-0.3-1.7-0.3c-1,0-1.9,0.2-2.7,0.7s-1.6,1.3-2.3,2.4c-0.7,1.1-1.2,2.6-1.6,4.4
			s-0.6,4-0.6,6.6c0,3.9,0.9,7,2.7,9.4s4,3.6,6.5,3.6c2.4,0,4.4-0.5,5.8-1.6c1.4-1.1,2.7-2.6,3.8-4.6l2.5,1.7
			c-0.7,1.3-1.5,2.6-2.4,3.7c-0.9,1.1-2.1,2.1-3.4,2.9c-1.4,0.9-2.8,1.6-4.2,2C310.3,277.9,308.6,278.1,306.7,278.1z"/>
		<path class="st0" d="M358.1,256h-2.1c-0.2-0.5-0.5-1.3-0.9-2.1c-0.4-0.9-0.9-1.8-1.5-2.7c-0.6-0.9-1.2-1.7-1.9-2.4
			c-0.7-0.7-1.5-1.1-2.2-1.2c-0.6-0.1-1.2-0.1-1.8-0.1c-0.6,0-1.3,0-2.1,0v23.6c0,0.8,0.1,1.5,0.4,2s0.8,0.9,1.4,1.1
			c0.5,0.2,1,0.3,1.5,0.3c0.5,0.1,1.1,0.1,1.8,0.2v2.4h-21.1v-2.4c0.5,0,1.1-0.1,1.8-0.2c0.6-0.1,1.1-0.2,1.5-0.3
			c0.7-0.2,1.2-0.6,1.5-1.1c0.3-0.5,0.4-1.2,0.4-2v-23.6c-1,0-1.7,0-2.2,0s-1,0.1-1.7,0.1c-0.8,0.1-1.5,0.5-2.2,1.2
			s-1.4,1.5-1.9,2.4c-0.6,0.9-1.1,1.8-1.5,2.8s-0.7,1.6-0.9,2.1h-2.1v-11.5h35.8L358.1,256L358.1,256z"/>
		<path class="st0" d="M397.9,268.1c0,1.6-0.4,3-1.1,4.2s-1.8,2.1-3.2,2.8c-1.5,0.8-3.1,1.3-4.8,1.6s-3.8,0.5-6.1,0.5
			c-5.5,0-9.8,0-12.9-0.1s-6.1-0.1-9.2-0.1v-2.4c0.5,0,1.1-0.1,1.7-0.2s1-0.2,1.4-0.3c0.7-0.2,1.2-0.6,1.5-1.1s0.4-1.2,0.4-2v-20.6
			c0-0.8-0.1-1.4-0.4-2s-0.8-0.9-1.4-1.1c-0.6-0.2-1.1-0.3-1.6-0.3c-0.5,0-1-0.1-1.5-0.2v-2.4c4.6,0,8.5,0,11.9-0.1s6.6-0.1,9.9-0.1
			c1.8,0,3.6,0.1,5.3,0.4c1.7,0.3,3.1,0.7,4.4,1.2s2.3,1.3,3,2.3c0.8,1,1.1,2.2,1.1,3.7c0,2.2-0.7,3.9-2.1,5.2
			c-1.4,1.3-3.4,2.2-5.9,2.6v0.5c1.3,0.2,2.5,0.4,3.7,0.7c1.2,0.3,2.2,0.8,3.1,1.4c0.9,0.6,1.7,1.4,2.2,2.4
			C397.6,265.6,397.9,266.8,397.9,268.1z M384.9,252.2c0-1.1-0.2-2-0.5-2.7s-0.8-1.2-1.3-1.6c-0.6-0.4-1.2-0.7-1.9-0.8
			s-1.4-0.2-2-0.2c-0.5,0-1,0-1.5,0c-0.5,0-1,0.1-1.6,0.1v11.8h2.7c1.2,0,2.2-0.2,3-0.5s1.5-0.8,1.9-1.5c0.4-0.5,0.7-1.2,0.9-2
			C384.8,254.1,384.9,253.2,384.9,252.2z M386.2,267.5c0-1.8-0.5-3.2-1.6-4.3s-2.7-1.7-5-1.7c-0.9,0-1.6,0-2.1,0.1
			c-0.5,0-0.9,0.1-1.3,0.1v10.5c0,0.9,0.3,1.5,0.8,2c0.5,0.5,1.4,0.7,2.7,0.7c1.3,0,2.3-0.2,3.2-0.6c0.9-0.4,1.5-1,2-1.7
			c0.5-0.7,0.8-1.5,1-2.3C386.1,269.4,386.2,268.5,386.2,267.5z"/>
		<path class="st0" d="M435.7,248.4c1.6,1.5,2.9,3.3,3.7,5.4s1.3,4.4,1.3,6.8c0,2.4-0.4,4.7-1.3,6.9c-0.8,2.2-2.1,4-3.7,5.5
			c-1.7,1.6-3.8,2.9-6.2,3.8s-5.1,1.3-8.2,1.3c-2.7,0-5.1-0.4-7.4-1.2s-4.2-1.9-6-3.5c-1.7-1.5-3-3.3-3.9-5.4s-1.5-4.6-1.5-7.2
			c0-2.6,0.4-5,1.3-7c0.8-2,2.1-3.9,3.8-5.5c1.6-1.5,3.6-2.7,6-3.6s5-1.3,8-1.3c3.1,0,5.8,0.4,8.1,1.3
			C432,245.6,434,246.8,435.7,248.4z M427.2,271.1c0.5-1.2,0.8-2.7,1.1-4.5c0.2-1.8,0.3-3.8,0.3-6.1c0-1.5-0.1-3.3-0.3-5.3
			c-0.2-2-0.5-3.5-1-4.7c-0.5-1.4-1.3-2.5-2.2-3.3s-2.1-1.2-3.5-1.2c-1.6,0-2.8,0.4-3.7,1.3c-0.9,0.8-1.6,2-2.1,3.3
			c-0.5,1.3-0.8,2.7-1,4.4c-0.2,1.7-0.3,3.4-0.3,5.2c0,2.4,0.1,4.4,0.2,5.9c0.1,1.6,0.5,3.1,1.1,4.7c0.5,1.4,1.2,2.4,2.2,3.2
			s2.1,1.2,3.6,1.2c1.3,0,2.4-0.4,3.4-1.1C425.9,273.6,426.7,272.5,427.2,271.1z"/>
		<path class="st0" d="M505.8,277.1h-20v-2.4c0.4-0.1,0.8-0.2,1.4-0.3s1-0.3,1.5-0.5c0.5-0.3,0.9-0.7,1.1-1.1c0.2-0.5,0.3-1.1,0.3-2
			v-9.4h-12.3v9.4c0,0.8,0.1,1.4,0.3,1.9c0.2,0.5,0.6,0.9,1.1,1.2c0.3,0.2,0.8,0.4,1.3,0.5c0.5,0.1,1,0.2,1.6,0.3v2.4h-20v-2.4
			c0.5,0,1.1-0.1,1.7-0.2s1-0.2,1.4-0.3c0.7-0.2,1.2-0.6,1.5-1.1s0.4-1.2,0.4-2v-20.6c0-0.8-0.1-1.4-0.4-2s-0.8-0.9-1.4-1.1
			c-0.6-0.2-1.1-0.3-1.6-0.3c-0.5,0-1-0.1-1.5-0.2v-2.4h20v2.4c-0.5,0.1-1,0.2-1.5,0.3s-0.9,0.3-1.4,0.5c-0.5,0.3-0.9,0.7-1.1,1.2
			c-0.2,0.5-0.3,1.2-0.3,1.9v7.6h12.3v-7.6c0-0.7-0.1-1.3-0.3-1.9c-0.2-0.5-0.6-0.9-1.1-1.2c-0.4-0.2-0.9-0.4-1.4-0.5
			c-0.5-0.1-1-0.2-1.4-0.3v-2.4h20v2.4c-0.7,0-1.2,0.1-1.6,0.2c-0.4,0.1-0.9,0.2-1.5,0.3c-0.6,0.2-1.1,0.5-1.4,1.1
			c-0.3,0.5-0.4,1.2-0.4,2v20.6c0,0.8,0.1,1.5,0.4,2s0.8,0.9,1.4,1.1c0.5,0.2,1,0.3,1.4,0.3c0.4,0.1,1,0.1,1.7,0.2L505.8,277.1
			L505.8,277.1z"/>
		<path class="st0" d="M545,269.2c-0.8,1.3-1.7,2.4-2.8,3.5c-1.1,1.1-2.3,2-3.7,2.8c-1.5,0.8-3,1.5-4.5,1.9s-3.2,0.6-5.2,0.6
			c-3.2,0-6-0.5-8.4-1.4c-2.3-0.9-4.3-2.2-5.8-3.7c-1.5-1.5-2.7-3.4-3.4-5.5c-0.8-2.1-1.1-4.4-1.1-6.9c0-2.2,0.4-4.4,1.2-6.4
			c0.8-2,2-3.9,3.5-5.5c1.5-1.5,3.4-2.8,5.6-3.8c2.3-1,4.8-1.5,7.6-1.5c3.1,0,5.6,0.4,7.6,1.1c2,0.8,3.6,1.8,4.9,3.1
			c1.3,1.3,2.2,2.7,2.7,4.4s0.8,3.5,0.8,5.3v2.1H522c0,4.5,0.9,7.9,2.6,10.3c1.7,2.3,4.5,3.5,8.3,3.5c2.1,0,3.9-0.6,5.5-1.7
			s3-2.6,4.2-4.3L545,269.2z M532.5,256.7c0-1.3-0.1-2.7-0.2-4s-0.4-2.5-0.7-3.4c-0.4-1-0.9-1.8-1.5-2.3c-0.7-0.5-1.5-0.8-2.5-0.8
			c-1.7,0-3,0.8-4,2.6c-1,1.7-1.6,4.4-1.6,8.1L532.5,256.7z"/>
		<path class="st0" d="M550.4,273.9c2.2-2.9,4-6.7,5.6-11.3c1.6-4.6,2.4-8.3,2.4-11.2c0-1-0.1-1.8-0.4-2.4s-0.7-0.9-1.3-1.3
			c-0.4-0.2-1.1-0.4-2-0.6s-1.7-0.3-2.3-0.4v-2.4h33.1v2.4c-0.7,0-1.2,0.1-1.6,0.2c-0.4,0.1-0.9,0.2-1.5,0.3
			c-0.6,0.2-1.1,0.5-1.4,1.1c-0.3,0.5-0.4,1.2-0.4,2v20.4c0,1.2,0.2,2,0.5,2.5s1.2,0.7,2.7,0.7h2.7v13.5h-2.1
			c-0.3-0.8-0.7-1.6-1.1-2.6s-1.1-2.1-2.1-3.5c-0.8-1.2-1.8-2.2-2.8-3c-1-0.8-2.2-1.3-3.6-1.5c-0.8-0.1-1.7-0.1-2.8-0.1
			c-1.1,0-1.9,0-2.5,0h-6c-0.9,0-1.8,0-2.6,0c-0.9,0-1.7,0-2.6,0.1c-1.3,0.1-2.4,0.6-3.5,1.5s-2,1.9-2.9,3c-0.8,1.2-1.5,2.3-2,3.5
			s-0.9,2-1.1,2.6h-2.1v-13.7L550.4,273.9L550.4,273.9z M554.6,273.9h12.3c1.1,0,1.9-0.2,2.2-0.5s0.6-0.9,0.6-1.8v-24h-7.5
			c0,4.5-0.7,9.1-2,13.9C558.9,266.3,557.1,270.4,554.6,273.9z"/>
		<path class="st0" d="M627,268.1c0,1.6-0.4,3-1.2,4.2s-1.8,2.1-3.2,2.8c-1.5,0.8-3.1,1.3-4.8,1.6s-3.8,0.5-6.1,0.5
			c-5.5,0-9.8,0-12.8-0.1s-6.1-0.1-9.2-0.1v-2.4c0.5,0,1.1-0.1,1.7-0.2s1-0.2,1.4-0.3c0.7-0.2,1.2-0.6,1.5-1.1s0.4-1.2,0.4-2v-20.6
			c0-0.8-0.1-1.4-0.4-2s-0.8-0.9-1.4-1.1c-0.6-0.2-1.1-0.3-1.6-0.3s-1-0.1-1.5-0.2v-2.4c4.6,0,8.5,0,11.9-0.1c3.3,0,6.6-0.1,9.9-0.1
			c1.8,0,3.6,0.1,5.3,0.4c1.7,0.3,3.1,0.7,4.4,1.2s2.3,1.3,3,2.3c0.8,1,1.1,2.2,1.1,3.7c0,2.2-0.7,3.9-2.1,5.2
			c-1.4,1.3-3.4,2.2-5.9,2.6v0.5c1.3,0.2,2.5,0.4,3.7,0.7s2.2,0.8,3.1,1.4c0.9,0.6,1.7,1.4,2.2,2.4S627,266.8,627,268.1z
			 M614.1,252.2c0-1.1-0.2-2-0.5-2.7s-0.8-1.2-1.3-1.6c-0.6-0.4-1.2-0.7-1.9-0.8s-1.4-0.2-2-0.2c-0.5,0-1,0-1.5,0
			c-0.5,0-1,0.1-1.6,0.1v11.8h2.7c1.2,0,2.2-0.2,3-0.5s1.5-0.8,1.9-1.5c0.4-0.5,0.7-1.2,0.9-2C614,254.1,614.1,253.2,614.1,252.2z
			 M615.3,267.5c0-1.8-0.5-3.2-1.6-4.3s-2.7-1.7-5-1.7c-0.9,0-1.6,0-2.1,0.1s-0.9,0.1-1.3,0.1v10.5c0,0.9,0.3,1.5,0.8,2
			c0.5,0.5,1.4,0.7,2.7,0.7c1.3,0,2.3-0.2,3.2-0.6c0.9-0.4,1.6-1,2-1.7c0.5-0.7,0.8-1.5,1-2.3C615.2,269.4,615.3,268.5,615.3,267.5z
			"/>
		<path class="st0" d="M675.6,277.1h-19.8v-2.4c0.4-0.1,0.8-0.2,1.4-0.3s1-0.3,1.5-0.5c0.5-0.3,0.9-0.7,1.1-1.1
			c0.2-0.5,0.3-1.1,0.3-2v-15.5l-13.1,15.5v0.1c0,0.8,0.1,1.4,0.3,1.9c0.2,0.5,0.6,0.8,1.1,1.1c0.3,0.2,0.8,0.3,1.3,0.4
			s1.1,0.2,1.6,0.3v2.4h-19.8v-2.4c0.5,0,1.1-0.1,1.7-0.2s1-0.2,1.4-0.3c0.7-0.2,1.2-0.6,1.5-1.1s0.4-1.2,0.4-2v-20.6
			c0-0.8-0.1-1.4-0.4-2s-0.8-0.9-1.4-1.1c-0.6-0.2-1.1-0.3-1.6-0.3s-1-0.1-1.5-0.2v-2.4h19.8v2.4c-0.5,0.1-1,0.2-1.5,0.3
			s-0.9,0.3-1.4,0.5c-0.5,0.3-0.9,0.7-1.1,1.2c-0.2,0.5-0.3,1.2-0.3,1.9v15.5l13.1-15.5v-0.1c0-0.8-0.1-1.4-0.3-1.9
			c-0.2-0.5-0.6-0.8-1.1-1.1c-0.4-0.2-0.9-0.4-1.5-0.5c-0.6-0.1-1.1-0.2-1.5-0.2v-2.4h19.8v2.4c-0.7,0-1.2,0.1-1.6,0.2
			c-0.4,0.1-0.9,0.2-1.5,0.3c-0.6,0.2-1.1,0.5-1.4,1.1c-0.3,0.5-0.4,1.2-0.4,2v20.6c0,0.8,0.1,1.5,0.4,2s0.8,0.9,1.4,1.1
			c0.5,0.2,1,0.3,1.4,0.3s1,0.1,1.7,0.2L675.6,277.1L675.6,277.1z"/>
		<path class="st0" d="M737.3,277.1h-14.9c-0.4-1.6-0.8-3.2-1.2-4.8c-0.5-1.6-0.9-3-1.4-4.4c-0.9-2.7-1.9-4.3-3-5
			c-1.1-0.7-2.4-1-3.9-1v8.8c0,0.8,0.1,1.4,0.3,1.9c0.2,0.5,0.6,0.9,1.1,1.2c0.3,0.2,0.8,0.4,1.3,0.5c0.5,0.1,1,0.2,1.6,0.3v2.4h-19
			v-2.4c0.4-0.1,0.8-0.2,1.4-0.3s1-0.3,1.5-0.5c0.5-0.3,0.9-0.7,1.1-1.1c0.2-0.5,0.3-1.1,0.3-2V262c-1.8,0-3.3,0.4-4.3,1.3
			c-1,0.8-1.9,2.4-2.7,4.7c-0.6,1.7-1,3.2-1.4,4.5s-0.8,2.9-1.2,4.6h-14.9v-2.4c0.4,0,0.8-0.1,1.2-0.2c0.5-0.1,0.9-0.2,1.3-0.3
			c0.7-0.2,1.3-0.5,1.7-0.8s0.8-0.9,1.1-1.7c0.3-0.6,0.6-1.4,1-2.4c0.4-1,0.8-1.9,1.2-2.7c0.8-1.9,2-3.5,3.5-4.9s3.4-2.4,5.6-2.8
			c-0.5-0.5-1-1.2-1.3-1.9c-0.3-0.8-0.7-1.5-0.9-2.2c-0.3-0.8-0.6-1.5-0.8-2.2c-0.3-0.7-0.7-1.2-1.2-1.8c-1,1.1-1.9,2-2.8,2.6
			s-1.9,0.9-3.1,0.9c-1.4,0-2.5-0.4-3.5-1.3c-1-0.9-1.5-2.2-1.5-3.9c0-0.7,0.1-1.3,0.3-1.9c0.2-0.6,0.5-1.2,1.1-1.8
			c0.5-0.5,1.1-1,2-1.3c0.9-0.3,1.8-0.5,2.9-0.5c1.4,0,2.6,0.2,3.6,0.7s1.8,1.1,2.6,2c0.8,0.8,1.4,1.8,1.8,2.7c0.4,1,0.8,2,1.1,3
			c0.2,0.8,0.5,1.8,0.9,2.9c0.4,1.1,0.8,2.1,1.3,2.8c0.5,0.7,1.1,1.2,1.9,1.4c0.8,0.2,1.5,0.3,2.1,0.3h1.3v-8.6
			c0-0.7-0.1-1.3-0.3-1.9c-0.2-0.5-0.6-0.9-1.1-1.2c-0.4-0.2-0.9-0.4-1.4-0.5s-1-0.2-1.4-0.3v-2.4h19v2.4c-0.5,0.1-1,0.2-1.5,0.3
			s-0.9,0.3-1.4,0.5c-0.5,0.3-0.9,0.7-1.1,1.2c-0.2,0.5-0.3,1.2-0.3,1.9v8.6h1.3c1,0,1.8-0.1,2.4-0.4s1.2-0.7,1.6-1.3
			c0.6-0.9,1.1-1.9,1.4-2.9c0.3-1,0.6-2,0.9-2.9c0.3-1,0.6-2,1-2.9s1-1.8,1.8-2.8c0.8-0.9,1.7-1.6,2.6-2s2.2-0.7,3.6-0.7
			c1.1,0,2.1,0.2,2.9,0.5s1.5,0.8,2,1.3s0.9,1.1,1.1,1.7s0.3,1.3,0.3,1.9c0,1.8-0.5,3.1-1.5,4c-1,0.9-2.1,1.3-3.5,1.3
			c-1.1,0-2.2-0.3-3.2-1s-1.9-1.4-2.6-2.2c-0.5,0.3-0.9,0.8-1.2,1.5s-0.6,1.4-0.9,2.1c-0.3,0.8-0.6,1.5-0.9,2.3
			c-0.3,0.7-0.7,1.4-1.3,1.9c2.2,0.4,4.1,1.4,5.6,2.8s2.7,3.1,3.5,4.9c0.3,0.7,0.7,1.6,1.1,2.6c0.5,1,0.8,1.9,1.1,2.5
			c0.4,0.9,0.9,1.5,1.5,1.9s1,0.5,1.3,0.6c0.3,0.1,0.7,0.2,1.3,0.3c0.5,0.1,1,0.2,1.2,0.2L737.3,277.1L737.3,277.1z"/>
		<path class="st0" d="M783.8,277.1h-19.8v-2.4c0.4-0.1,0.8-0.2,1.4-0.3s1-0.3,1.5-0.5c0.5-0.3,0.9-0.7,1.1-1.1
			c0.2-0.5,0.3-1.1,0.3-2v-15.5l-13.1,15.5v0.1c0,0.8,0.1,1.4,0.3,1.9c0.2,0.5,0.6,0.8,1.1,1.1c0.3,0.2,0.8,0.3,1.3,0.4
			s1.1,0.2,1.6,0.3v2.4h-19.8v-2.4c0.5,0,1.1-0.1,1.7-0.2s1-0.2,1.4-0.3c0.7-0.2,1.2-0.6,1.5-1.1s0.4-1.2,0.4-2v-20.6
			c0-0.8-0.1-1.4-0.4-2s-0.8-0.9-1.4-1.1c-0.6-0.2-1.1-0.3-1.6-0.3s-1-0.1-1.5-0.2v-2.4h19.8v2.4c-0.5,0.1-1,0.2-1.5,0.3
			s-0.9,0.3-1.4,0.5c-0.5,0.3-0.9,0.7-1.1,1.2c-0.2,0.5-0.3,1.2-0.3,1.9v15.5l13.1-15.5v-0.1c0-0.8-0.1-1.4-0.3-1.9
			c-0.2-0.5-0.6-0.8-1.1-1.1c-0.4-0.2-0.9-0.4-1.5-0.5c-0.6-0.1-1.1-0.2-1.5-0.2v-2.4h19.8v2.4c-0.7,0-1.2,0.1-1.6,0.2
			c-0.4,0.1-0.9,0.2-1.5,0.3c-0.6,0.2-1.1,0.5-1.4,1.1c-0.3,0.5-0.4,1.2-0.4,2v20.6c0,0.8,0.1,1.5,0.4,2s0.8,0.9,1.4,1.1
			c0.5,0.2,1,0.3,1.4,0.3s1,0.1,1.7,0.2L783.8,277.1L783.8,277.1z"/>
		<path class="st0" d="M837.8,277.1h-20.5v-2.4c0.5,0,1.1-0.1,1.7-0.2s1-0.2,1.4-0.3c0.7-0.2,1.2-0.6,1.5-1.1s0.4-1.2,0.4-2v-21.9
			h-1l-10,27.4h-4.5l-9.6-27.4h-1V270c0,1.1,0.2,2,0.4,2.6c0.3,0.6,0.8,1.1,1.4,1.3c0.5,0.2,1,0.4,1.5,0.5s1.1,0.2,1.7,0.2v2.4H788
			v-2.4c0.5,0,1-0.1,1.6-0.2c0.5,0,1-0.2,1.4-0.3c0.7-0.2,1.1-0.7,1.4-1.3c0.3-0.7,0.4-1.5,0.4-2.6v-19.4c0-0.8-0.2-1.5-0.5-2.1
			c-0.3-0.5-0.8-0.9-1.4-1.2c-0.6-0.3-1.2-0.4-1.7-0.5c-0.5-0.1-1-0.2-1.5-0.2v-2.4h18.7l6.5,19.2l5.4-15c0.3-0.8,0.5-1.7,0.7-2.5
			c0.2-0.9,0.3-1.4,0.3-1.7h18.4v2.4c-0.7,0-1.2,0.1-1.6,0.2c-0.4,0.1-0.9,0.2-1.5,0.3c-0.6,0.2-1.1,0.5-1.4,1.1
			c-0.3,0.5-0.4,1.2-0.4,2v20.6c0,0.8,0.1,1.5,0.4,2c0.3,0.5,0.8,0.9,1.4,1.1c0.5,0.2,1,0.3,1.4,0.3s1,0.1,1.7,0.2L837.8,277.1
			L837.8,277.1z"/>
		<path class="st0" d="M875.3,248.4c1.6,1.5,2.9,3.3,3.7,5.4c0.8,2.1,1.3,4.4,1.3,6.8c0,2.4-0.4,4.7-1.3,6.9c-0.8,2.2-2.1,4-3.7,5.5
			c-1.7,1.6-3.8,2.9-6.2,3.8s-5.1,1.3-8.2,1.3c-2.7,0-5.1-0.4-7.4-1.2s-4.2-1.9-6-3.5c-1.7-1.5-3-3.3-3.9-5.4s-1.5-4.6-1.5-7.2
			c0-2.6,0.4-5,1.3-7c0.8-2,2.1-3.9,3.8-5.5c1.6-1.5,3.6-2.7,6-3.6s5-1.3,8-1.3c3.1,0,5.8,0.4,8.1,1.3
			C871.6,245.6,873.6,246.8,875.3,248.4z M866.9,271.1c0.5-1.2,0.8-2.7,1.1-4.5c0.2-1.8,0.3-3.8,0.3-6.1c0-1.5-0.1-3.3-0.3-5.3
			c-0.2-2-0.5-3.5-1-4.7c-0.5-1.4-1.3-2.5-2.2-3.3s-2.1-1.2-3.5-1.2c-1.5,0-2.8,0.4-3.7,1.3s-1.7,2-2.2,3.3c-0.5,1.3-0.8,2.7-1,4.4
			c-0.2,1.7-0.3,3.4-0.3,5.2c0,2.4,0.1,4.4,0.2,5.9c0.2,1.6,0.5,3.1,1.1,4.7c0.5,1.4,1.2,2.4,2.2,3.2s2.1,1.2,3.6,1.2
			c1.3,0,2.4-0.4,3.4-1.1S866.3,272.5,866.9,271.1z"/>
		<path class="st0" d="M903.3,278.1c-3,0-5.7-0.4-8.1-1.3c-2.3-0.9-4.3-2.1-5.8-3.6c-1.5-1.5-2.6-3.4-3.4-5.5
			c-0.7-2.1-1.1-4.4-1.1-6.9c0-2.3,0.5-4.5,1.4-6.5c0.9-2.1,2.1-3.9,3.7-5.4c1.6-1.6,3.6-2.9,6-3.8c2.4-1,5-1.4,7.9-1.4
			c4,0,7.2,0.8,9.6,2.3s3.5,3.6,3.5,6.2c0,1.6-0.4,2.8-1.3,3.8s-2.3,1.5-4.3,1.5c-1.6,0-3-0.4-4.1-1.2c-1.1-0.8-1.7-1.8-1.7-3.1
			c0-1.1,0.2-2.1,0.5-3.2c0.3-1,0.6-1.8,0.6-2.4c-0.2-0.4-0.5-0.7-0.9-0.9c-0.4-0.2-1-0.3-1.7-0.3c-1,0-1.9,0.2-2.7,0.7
			s-1.6,1.3-2.3,2.4c-0.7,1.1-1.2,2.6-1.6,4.4s-0.6,4-0.6,6.6c0,3.9,0.9,7,2.7,9.4s4,3.6,6.5,3.6c2.4,0,4.4-0.5,5.8-1.6
			c1.4-1.1,2.7-2.6,3.8-4.6l2.5,1.7c-0.7,1.3-1.5,2.6-2.4,3.7c-0.9,1.1-2.1,2.1-3.4,2.9c-1.4,0.9-2.8,1.6-4.2,2
			S905.1,278.1,903.3,278.1z"/>
		<path class="st0" d="M954.6,256h-2.1c-0.2-0.5-0.5-1.3-0.9-2.1s-0.9-1.8-1.5-2.7c-0.6-0.9-1.2-1.7-1.9-2.4s-1.5-1.1-2.2-1.2
			c-0.6-0.1-1.2-0.1-1.8-0.1s-1.3,0-2.1,0v23.6c0,0.8,0.1,1.5,0.4,2c0.3,0.5,0.8,0.9,1.4,1.1c0.5,0.2,1,0.3,1.5,0.3
			c0.5,0.1,1.1,0.1,1.8,0.2v2.4h-21.1v-2.4c0.5,0,1.1-0.1,1.8-0.2s1.2-0.2,1.5-0.3c0.7-0.2,1.2-0.6,1.5-1.1c0.3-0.5,0.4-1.2,0.4-2
			v-23.6c-1,0-1.7,0-2.2,0c-0.5,0-1,0.1-1.7,0.1c-0.7,0.1-1.5,0.5-2.2,1.2c-0.7,0.7-1.4,1.5-1.9,2.4c-0.6,0.9-1.1,1.8-1.5,2.8
			s-0.7,1.6-0.9,2.1h-2.1v-11.5h35.8L954.6,256L954.6,256z"/>
		<path class="st0" d="M1001.3,277.1h-19.8v-2.4c0.4-0.1,0.8-0.2,1.4-0.3s1-0.3,1.5-0.5c0.5-0.3,0.9-0.7,1.1-1.1s0.3-1.1,0.3-2
			v-15.5l-13.1,15.5v0.1c0,0.8,0.1,1.4,0.3,1.9c0.2,0.5,0.6,0.8,1.1,1.1c0.3,0.2,0.8,0.3,1.3,0.4s1.1,0.2,1.6,0.3v2.4h-19.8v-2.4
			c0.5,0,1.1-0.1,1.7-0.2s1-0.2,1.4-0.3c0.7-0.2,1.2-0.6,1.5-1.1s0.4-1.2,0.4-2v-20.6c0-0.8-0.1-1.4-0.4-2s-0.8-0.9-1.4-1.1
			c-0.6-0.2-1.1-0.3-1.6-0.3s-1-0.1-1.5-0.2v-2.4H977v2.4c-0.5,0.1-1,0.2-1.5,0.3s-0.9,0.3-1.4,0.5c-0.5,0.3-0.9,0.7-1.1,1.2
			c-0.2,0.5-0.3,1.2-0.3,1.9v15.5l13.1-15.5v-0.1c0-0.8-0.1-1.4-0.3-1.9c-0.2-0.5-0.6-0.8-1.1-1.1c-0.4-0.2-0.9-0.4-1.5-0.5
			c-0.6-0.1-1.1-0.2-1.5-0.2v-2.4h19.8v2.4c-0.7,0-1.2,0.1-1.6,0.2c-0.4,0.1-0.9,0.2-1.4,0.3c-0.6,0.2-1.1,0.5-1.4,1.1
			s-0.4,1.2-0.4,2v20.6c0,0.8,0.1,1.5,0.4,2s0.8,0.9,1.4,1.1c0.5,0.2,1,0.3,1.4,0.3s1,0.1,1.7,0.2L1001.3,277.1L1001.3,277.1z"/>
	</g>
</g>
</svg>
